<mxfile host="65bd71144e">
    <diagram id="cs8eAwnBnD0t727MsK7l" name="Страница 1">
        <mxGraphModel dx="332" dy="261" grid="0" gridSize="10" guides="1" tooltips="1" connect="1" arrows="1" fold="1" page="1" pageScale="1" pageWidth="827" pageHeight="1169" background="#ffffff" math="0" shadow="0">
            <root>
                <mxCell id="0"/>
                <mxCell id="1" parent="0"/>
                <mxCell id="175" value="" style="group" parent="1" vertex="1" connectable="0">
                    <mxGeometry x="312" y="369" width="227" height="129" as="geometry"/>
                </mxCell>
                <mxCell id="116" value="" style="rounded=1;whiteSpace=wrap;html=1;fillColor=#FFF;strokeColor=#050505;" parent="175" vertex="1">
                    <mxGeometry width="227" height="129" as="geometry"/>
                </mxCell>
                <mxCell id="118" value="&lt;font style=&quot;font-size: 14px;&quot; color=&quot;#000000&quot;&gt;&lt;b&gt;&lt;i&gt;&lt;u&gt;Домен аналитики&lt;/u&gt;&lt;/i&gt;&lt;/b&gt;&lt;/font&gt;" style="text;strokeColor=none;align=center;fillColor=none;html=1;verticalAlign=middle;whiteSpace=wrap;rounded=0;" parent="175" vertex="1">
                    <mxGeometry x="90" y="3" width="140" height="30" as="geometry"/>
                </mxCell>
                <mxCell id="151" value="Сервис &lt;br&gt;аналитики" style="shape=process;whiteSpace=wrap;html=1;backgroundOutline=1;" parent="175" vertex="1">
                    <mxGeometry x="22.5" y="41" width="143" height="61" as="geometry"/>
                </mxCell>
                <mxCell id="113" value="" style="rounded=1;whiteSpace=wrap;html=1;fillColor=#FFF;strokeColor=#050505;" parent="1" vertex="1">
                    <mxGeometry x="295" y="121.5" width="409" height="198.5" as="geometry"/>
                </mxCell>
                <mxCell id="119" value="&lt;font style=&quot;font-size: 14px;&quot; color=&quot;#000000&quot;&gt;&lt;b&gt;&lt;i&gt;&lt;u&gt;Домен счета&lt;/u&gt;&lt;/i&gt;&lt;/b&gt;&lt;/font&gt;" style="text;strokeColor=none;align=center;fillColor=none;html=1;verticalAlign=middle;whiteSpace=wrap;rounded=0;" parent="1" vertex="1">
                    <mxGeometry x="312" y="121.5" width="109" height="30" as="geometry"/>
                </mxCell>
                <mxCell id="143" value="Сервис &lt;br&gt;аккаунтинга" style="shape=process;whiteSpace=wrap;html=1;backgroundOutline=1;" parent="1" vertex="1">
                    <mxGeometry x="331" y="229" width="135" height="61" as="geometry"/>
                </mxCell>
                <mxCell id="147" value="Сервис &lt;br&gt;выплат" style="shape=process;whiteSpace=wrap;html=1;backgroundOutline=1;" parent="1" vertex="1">
                    <mxGeometry x="546" y="229" width="143" height="61" as="geometry"/>
                </mxCell>
                <mxCell id="173" value="" style="group" parent="1" vertex="1" connectable="0">
                    <mxGeometry x="57" y="373" width="214" height="115" as="geometry"/>
                </mxCell>
                <mxCell id="114" value="" style="rounded=1;whiteSpace=wrap;html=1;fillColor=#FFF;strokeColor=#050505;" parent="173" vertex="1">
                    <mxGeometry width="214" height="115" as="geometry"/>
                </mxCell>
                <mxCell id="117" value="&lt;font style=&quot;font-size: 14px;&quot; color=&quot;#000000&quot;&gt;&lt;b&gt;&lt;i&gt;&lt;u&gt;Домен задач&lt;/u&gt;&lt;/i&gt;&lt;/b&gt;&lt;/font&gt;" style="text;strokeColor=none;align=center;fillColor=none;html=1;verticalAlign=middle;whiteSpace=wrap;rounded=0;" parent="173" vertex="1">
                    <mxGeometry x="10" y="5" width="109" height="30" as="geometry"/>
                </mxCell>
                <mxCell id="129" value="Сервис &lt;br&gt;таск-трекинга" style="shape=process;whiteSpace=wrap;html=1;backgroundOutline=1;" parent="173" vertex="1">
                    <mxGeometry x="51.5" y="43" width="143" height="61" as="geometry"/>
                </mxCell>
                <mxCell id="174" value="" style="group" parent="1" vertex="1" connectable="0">
                    <mxGeometry x="46" y="131" width="208.5" height="138" as="geometry"/>
                </mxCell>
                <mxCell id="115" value="" style="rounded=1;whiteSpace=wrap;html=1;fillColor=#FFF;strokeColor=#050505;align=right;" parent="174" vertex="1">
                    <mxGeometry width="208.5" height="138" as="geometry"/>
                </mxCell>
                <mxCell id="121" value="Сервис авторизации" style="shape=process;whiteSpace=wrap;html=1;backgroundOutline=1;" parent="174" vertex="1">
                    <mxGeometry x="49.5" y="52" width="143" height="61" as="geometry"/>
                </mxCell>
                <mxCell id="120" value="&lt;font style=&quot;font-size: 14px;&quot; color=&quot;#000000&quot;&gt;&lt;b&gt;&lt;i&gt;&lt;u&gt;Домен аккаунта&lt;/u&gt;&lt;/i&gt;&lt;/b&gt;&lt;/font&gt;" style="text;strokeColor=none;align=center;fillColor=none;html=1;verticalAlign=middle;whiteSpace=wrap;rounded=0;" parent="174" vertex="1">
                    <mxGeometry x="14" y="8" width="120" height="30" as="geometry"/>
                </mxCell>
                <mxCell id="139" value="" style="endArrow=classic;html=1;strokeColor=#0A0A0A;exitX=0.75;exitY=0;exitDx=0;exitDy=0;entryX=0.25;entryY=1;entryDx=0;entryDy=0;" parent="1" source="129" target="143" edge="1">
                    <mxGeometry relative="1" as="geometry">
                        <mxPoint x="219" y="397" as="sourcePoint"/>
                        <mxPoint x="279" y="347" as="targetPoint"/>
                        <Array as="points"/>
                    </mxGeometry>
                </mxCell>
                <mxCell id="140" value="" style="shape=message;html=1;outlineConnect=0;" parent="139" vertex="1">
                    <mxGeometry width="20" height="14" relative="1" as="geometry">
                        <mxPoint x="-59" y="33" as="offset"/>
                    </mxGeometry>
                </mxCell>
                <mxCell id="180" value="" style="endArrow=classic;html=1;strokeColor=#999999;exitX=0.999;exitY=0.852;exitDx=0;exitDy=0;entryX=0.106;entryY=0.001;entryDx=0;entryDy=0;entryPerimeter=0;exitPerimeter=0;" parent="1" source="121" target="151" edge="1">
                    <mxGeometry relative="1" as="geometry">
                        <mxPoint x="196.019" y="253.45100000000002" as="sourcePoint"/>
                        <mxPoint x="194.50199999999995" y="426.183" as="targetPoint"/>
                        <Array as="points"/>
                    </mxGeometry>
                </mxCell>
                <mxCell id="181" value="" style="shape=message;html=1;outlineConnect=0;strokeColor=#E6E6E6;fillColor=#999999;" parent="180" vertex="1">
                    <mxGeometry width="20" height="14" relative="1" as="geometry">
                        <mxPoint x="-30" y="-57" as="offset"/>
                    </mxGeometry>
                </mxCell>
                <mxCell id="186" style="edgeStyle=none;html=1;entryX=0.552;entryY=0.984;entryDx=0;entryDy=0;entryPerimeter=0;strokeColor=#0A0A0A;fontColor=#000000;fillColor=#050505;" parent="1" target="121" edge="1">
                    <mxGeometry relative="1" as="geometry">
                        <mxPoint x="173" y="414" as="sourcePoint"/>
                        <mxPoint x="160.269" y="254.06100000000015" as="targetPoint"/>
                        <Array as="points"/>
                    </mxGeometry>
                </mxCell>
                <mxCell id="192" style="edgeStyle=none;html=1;entryX=0.947;entryY=0.993;entryDx=0;entryDy=0;entryPerimeter=0;strokeColor=#0A0A0A;fontColor=#000000;fillColor=#050505;exitX=0;exitY=0;exitDx=0;exitDy=0;" parent="1" source="151" target="121" edge="1">
                    <mxGeometry relative="1" as="geometry">
                        <mxPoint x="183" y="424" as="sourcePoint"/>
                        <mxPoint x="184.43599999999992" y="253.024" as="targetPoint"/>
                        <Array as="points"/>
                    </mxGeometry>
                </mxCell>
                <mxCell id="212" value="" style="rounded=0;whiteSpace=wrap;html=1;labelBackgroundColor=none;strokeColor=#E6E6E6;fontColor=#000000;fillColor=#FFFFFF;shadow=1;" parent="1" vertex="1">
                    <mxGeometry x="55" y="8" width="234" height="102" as="geometry"/>
                </mxCell>
                <mxCell id="185" style="edgeStyle=none;html=1;strokeColor=#0A0A0A;fontColor=#000000;fillColor=#050505;" parent="1" edge="1">
                    <mxGeometry relative="1" as="geometry">
                        <mxPoint x="166.25" y="63.8" as="sourcePoint"/>
                        <mxPoint x="210.25" y="63.8" as="targetPoint"/>
                    </mxGeometry>
                </mxCell>
                <mxCell id="187" style="edgeStyle=none;html=1;strokeColor=#0A0A0A;fontColor=#000000;fillColor=#050505;startArrow=none;" parent="1" source="188" edge="1">
                    <mxGeometry relative="1" as="geometry">
                        <mxPoint x="165.25" y="88.8" as="sourcePoint"/>
                        <mxPoint x="211.25" y="88.8" as="targetPoint"/>
                    </mxGeometry>
                </mxCell>
                <mxCell id="189" value="синхронная" style="text;strokeColor=none;align=center;fillColor=none;html=1;verticalAlign=middle;whiteSpace=wrap;rounded=0;labelBackgroundColor=none;fontColor=#000000;" parent="1" vertex="1">
                    <mxGeometry x="66" y="49" width="78" height="30" as="geometry"/>
                </mxCell>
                <mxCell id="190" value="асинхронная" style="text;strokeColor=none;align=center;fillColor=none;html=1;verticalAlign=middle;whiteSpace=wrap;rounded=0;labelBackgroundColor=none;fontColor=#000000;" parent="1" vertex="1">
                    <mxGeometry x="66" y="74" width="78" height="30" as="geometry"/>
                </mxCell>
                <mxCell id="203" style="edgeStyle=none;html=1;strokeColor=#999999;fontColor=#000000;fillColor=#050505;" parent="1" edge="1">
                    <mxGeometry relative="1" as="geometry">
                        <mxPoint x="234" y="67.00000000000006" as="sourcePoint"/>
                        <mxPoint x="278" y="67.00000000000006" as="targetPoint"/>
                    </mxGeometry>
                </mxCell>
                <mxCell id="211" value="Легенда связей" style="text;strokeColor=none;align=center;fillColor=none;html=1;verticalAlign=middle;whiteSpace=wrap;rounded=0;labelBackgroundColor=none;fontColor=#000000;" parent="1" vertex="1">
                    <mxGeometry x="60" y="8" width="102" height="30" as="geometry"/>
                </mxCell>
                <mxCell id="213" value="BE" style="text;strokeColor=none;align=center;fillColor=none;html=1;verticalAlign=middle;whiteSpace=wrap;rounded=0;labelBackgroundColor=none;fontColor=#000000;" parent="1" vertex="1">
                    <mxGeometry x="171.75" y="33" width="33" height="30" as="geometry"/>
                </mxCell>
                <mxCell id="214" value="CUD" style="text;strokeColor=none;align=center;fillColor=none;html=1;verticalAlign=middle;whiteSpace=wrap;rounded=0;labelBackgroundColor=none;fontColor=#000000;" parent="1" vertex="1">
                    <mxGeometry x="235" y="41" width="33" height="20" as="geometry"/>
                </mxCell>
                <mxCell id="216" value="" style="edgeStyle=none;html=1;strokeColor=#0A0A0A;fontColor=#000000;fillColor=#050505;endArrow=none;" parent="1" target="188" edge="1">
                    <mxGeometry relative="1" as="geometry">
                        <mxPoint x="165.25" y="88.80000000000001" as="sourcePoint"/>
                        <mxPoint x="211.25" y="88.80000000000001" as="targetPoint"/>
                    </mxGeometry>
                </mxCell>
                <mxCell id="188" value="" style="shape=message;html=1;outlineConnect=0;" parent="1" vertex="1">
                    <mxGeometry x="171.74878787878777" y="82.00000000000023" width="20" height="14" as="geometry"/>
                </mxCell>
                <mxCell id="218" value="" style="group" parent="1" vertex="1" connectable="0">
                    <mxGeometry x="234" y="82.00000000000023" width="46" height="14" as="geometry"/>
                </mxCell>
                <mxCell id="204" style="edgeStyle=none;html=1;strokeColor=#999999;fontColor=#000000;fillColor=#757575;" parent="218" edge="1">
                    <mxGeometry relative="1" as="geometry">
                        <mxPoint y="6.9999999999998295" as="sourcePoint"/>
                        <mxPoint x="46" y="6.9999999999998295" as="targetPoint"/>
                    </mxGeometry>
                </mxCell>
                <mxCell id="205" value="" style="shape=message;html=1;outlineConnect=0;strokeColor=#F0F0F0;fillColor=#999999;" parent="218" vertex="1">
                    <mxGeometry x="10.998787878787766" width="20" height="14" as="geometry"/>
                </mxCell>
                <mxCell id="223" style="edgeStyle=none;html=1;strokeColor=#999999;fontColor=#000000;fillColor=#757575;exitX=0.998;exitY=0.454;exitDx=0;exitDy=0;exitPerimeter=0;entryX=0;entryY=0.5;entryDx=0;entryDy=0;" parent="1" source="121" target="143" edge="1">
                    <mxGeometry relative="1" as="geometry">
                        <mxPoint x="244" y="211.00000000000006" as="sourcePoint"/>
                        <mxPoint x="290" y="211.00000000000006" as="targetPoint"/>
                    </mxGeometry>
                </mxCell>
                <mxCell id="224" value="" style="shape=message;html=1;outlineConnect=0;strokeColor=#F0F0F0;fillColor=#999999;" parent="1" vertex="1">
                    <mxGeometry x="259.99878787878777" y="220.00000000000023" width="20" height="14" as="geometry"/>
                </mxCell>
                <mxCell id="227" value="" style="endArrow=classic;html=1;strokeColor=#999999;exitX=0.5;exitY=1;exitDx=0;exitDy=0;entryX=0.364;entryY=-0.004;entryDx=0;entryDy=0;entryPerimeter=0;" parent="1" source="143" target="151" edge="1">
                    <mxGeometry relative="1" as="geometry">
                        <mxPoint x="248.35699999999997" y="244.97199999999998" as="sourcePoint"/>
                        <mxPoint x="352.15800000000013" y="424.0609999999999" as="targetPoint"/>
                        <Array as="points"/>
                    </mxGeometry>
                </mxCell>
                <mxCell id="228" value="" style="shape=message;html=1;outlineConnect=0;strokeColor=#E6E6E6;fillColor=#999999;" parent="227" vertex="1">
                    <mxGeometry width="20" height="14" relative="1" as="geometry">
                        <mxPoint x="-7" y="-36" as="offset"/>
                    </mxGeometry>
                </mxCell>
                <mxCell id="229" value="" style="endArrow=classic;html=1;strokeColor=#999999;exitX=1;exitY=0.5;exitDx=0;exitDy=0;" parent="1" source="129" target="151" edge="1">
                    <mxGeometry relative="1" as="geometry">
                        <mxPoint x="258.35699999999997" y="254.97199999999998" as="sourcePoint"/>
                        <mxPoint x="362.15800000000013" y="434.0609999999999" as="targetPoint"/>
                        <Array as="points"/>
                    </mxGeometry>
                </mxCell>
                <mxCell id="230" value="" style="shape=message;html=1;outlineConnect=0;strokeColor=#E6E6E6;fillColor=#999999;" parent="229" vertex="1">
                    <mxGeometry width="20" height="14" relative="1" as="geometry">
                        <mxPoint x="-9" y="-6" as="offset"/>
                    </mxGeometry>
                </mxCell>
                <mxCell id="231" value="" style="endArrow=classic;html=1;strokeColor=#999999;exitX=0.687;exitY=0.992;exitDx=0;exitDy=0;entryX=0.593;entryY=0.014;entryDx=0;entryDy=0;entryPerimeter=0;exitPerimeter=0;" parent="1" source="121" target="129" edge="1">
                    <mxGeometry relative="1" as="geometry">
                        <mxPoint x="268.35699999999997" y="264.972" as="sourcePoint"/>
                        <mxPoint x="372.15800000000013" y="444.0609999999999" as="targetPoint"/>
                        <Array as="points"/>
                    </mxGeometry>
                </mxCell>
                <mxCell id="232" value="" style="shape=message;html=1;outlineConnect=0;strokeColor=#E6E6E6;fillColor=#999999;" parent="231" vertex="1">
                    <mxGeometry width="20" height="14" relative="1" as="geometry">
                        <mxPoint x="-7" y="-54" as="offset"/>
                    </mxGeometry>
                </mxCell>
                <mxCell id="233" value="" style="endArrow=classic;html=1;strokeColor=#999999;exitX=1;exitY=0.25;exitDx=0;exitDy=0;entryX=0;entryY=0.25;entryDx=0;entryDy=0;" parent="1" source="143" target="147" edge="1">
                    <mxGeometry relative="1" as="geometry">
                        <mxPoint x="408.5" y="251.5" as="sourcePoint"/>
                        <mxPoint x="408.5" y="424" as="targetPoint"/>
                        <Array as="points"/>
                    </mxGeometry>
                </mxCell>
                <mxCell id="234" value="" style="shape=message;html=1;outlineConnect=0;strokeColor=#E6E6E6;fillColor=#999999;" parent="233" vertex="1">
                    <mxGeometry width="20" height="14" relative="1" as="geometry">
                        <mxPoint x="-27" y="-7" as="offset"/>
                    </mxGeometry>
                </mxCell>
                <mxCell id="235" value="" style="endArrow=classic;html=1;strokeColor=#999999;exitX=-0.011;exitY=0.649;exitDx=0;exitDy=0;entryX=0.991;entryY=0.643;entryDx=0;entryDy=0;exitPerimeter=0;entryPerimeter=0;" parent="1" source="147" target="143" edge="1">
                    <mxGeometry relative="1" as="geometry">
                        <mxPoint x="476" y="205.75" as="sourcePoint"/>
                        <mxPoint x="554" y="205.75" as="targetPoint"/>
                        <Array as="points"/>
                    </mxGeometry>
                </mxCell>
                <mxCell id="236" value="" style="shape=message;html=1;outlineConnect=0;strokeColor=#E6E6E6;fillColor=#999999;" parent="235" vertex="1">
                    <mxGeometry width="20" height="14" relative="1" as="geometry">
                        <mxPoint x="11" y="-8" as="offset"/>
                    </mxGeometry>
                </mxCell>
                <mxCell id="243" style="edgeStyle=none;html=1;entryX=1;entryY=0.25;entryDx=0;entryDy=0;strokeColor=#000000;fontColor=#000000;fillColor=#757575;" parent="1" source="239" target="121" edge="1">
                    <mxGeometry relative="1" as="geometry"/>
                </mxCell>
                <mxCell id="239" value="BFF аккаунтинга" style="shape=process;whiteSpace=wrap;html=1;backgroundOutline=1;" parent="1" vertex="1">
                    <mxGeometry x="440" y="148" width="142" height="46" as="geometry"/>
                </mxCell>
                <mxCell id="247" value="" style="endArrow=classic;html=1;strokeColor=#000000;fontColor=#000000;fillColor=#757575;exitX=0.709;exitY=1;exitDx=0;exitDy=0;exitPerimeter=0;" parent="1" source="239" target="147" edge="1">
                    <mxGeometry relative="1" as="geometry">
                        <mxPoint x="553" y="393" as="sourcePoint"/>
                        <mxPoint x="653" y="393" as="targetPoint"/>
                    </mxGeometry>
                </mxCell>
                <mxCell id="248" value="Read" style="edgeLabel;resizable=0;html=1;align=center;verticalAlign=middle;shadow=1;labelBackgroundColor=none;strokeColor=#E6E6E6;fontColor=#000000;fillColor=#999999;" parent="247" connectable="0" vertex="1">
                    <mxGeometry relative="1" as="geometry">
                        <mxPoint x="15" y="-4" as="offset"/>
                    </mxGeometry>
                </mxCell>
                <mxCell id="251" value="" style="endArrow=classic;html=1;strokeColor=#000000;fontColor=#000000;fillColor=#757575;exitX=0.293;exitY=1;exitDx=0;exitDy=0;exitPerimeter=0;entryX=0.75;entryY=0;entryDx=0;entryDy=0;" parent="1" edge="1">
                    <mxGeometry relative="1" as="geometry">
                        <mxPoint x="479.3560000000002" y="194" as="sourcePoint"/>
                        <mxPoint x="430" y="229" as="targetPoint"/>
                    </mxGeometry>
                </mxCell>
                <mxCell id="252" value="Read" style="edgeLabel;resizable=0;html=1;align=center;verticalAlign=middle;shadow=1;labelBackgroundColor=none;strokeColor=#E6E6E6;fontColor=#000000;fillColor=#999999;" parent="251" connectable="0" vertex="1">
                    <mxGeometry relative="1" as="geometry">
                        <mxPoint x="-11" y="-4" as="offset"/>
                    </mxGeometry>
                </mxCell>
                <mxCell id="253" style="edgeStyle=none;html=1;strokeColor=#999999;fontColor=#000000;fillColor=#757575;exitX=0.999;exitY=0.399;exitDx=0;exitDy=0;exitPerimeter=0;entryX=0;entryY=0;entryDx=0;entryDy=0;startArrow=none;" edge="1" parent="1" source="254" target="147">
                    <mxGeometry relative="1" as="geometry">
                        <mxPoint x="248.21399999999994" y="220.69399999999996" as="sourcePoint"/>
                        <mxPoint x="341" y="269.5" as="targetPoint"/>
                    </mxGeometry>
                </mxCell>
                <mxCell id="255" value="" style="edgeStyle=none;html=1;strokeColor=#999999;fontColor=#000000;fillColor=#757575;exitX=0.999;exitY=0.399;exitDx=0;exitDy=0;exitPerimeter=0;entryX=0;entryY=0;entryDx=0;entryDy=0;endArrow=none;" edge="1" parent="1" source="121" target="254">
                    <mxGeometry relative="1" as="geometry">
                        <mxPoint x="238.35699999999997" y="207.33900000000006" as="sourcePoint"/>
                        <mxPoint x="546" y="229" as="targetPoint"/>
                    </mxGeometry>
                </mxCell>
                <mxCell id="254" value="" style="shape=message;html=1;outlineConnect=0;strokeColor=#F0F0F0;fillColor=#999999;" vertex="1" parent="1">
                    <mxGeometry x="288.99878787878777" y="206.00000000000023" width="20" height="14" as="geometry"/>
                </mxCell>
            </root>
        </mxGraphModel>
    </diagram>
</mxfile>